<?xml version="1.0" standalone="no"?>
<!DOCTYPE svg PUBLIC "-//W3C//DTD SVG 20010904//EN"
 "http://www.w3.org/TR/2001/REC-SVG-20010904/DTD/svg10.dtd">
<svg version="1.0" xmlns="http://www.w3.org/2000/svg"
 width="192.000000pt" height="192.000000pt" viewBox="0 0 192.000000 192.000000"
 preserveAspectRatio="xMidYMid meet">
<metadata>
Created by potrace 1.14, written by Peter Selinger 2001-2017
</metadata>
<g transform="translate(0.000000,192.000000) scale(0.100000,-0.100000)"
fill="#000000" stroke="none">
<path d="M160 1830 c-61 -86 -80 -254 -46 -395 26 -106 77 -215 134 -285 71
-89 451 -459 478 -466 14 -4 47 -1 73 5 25 7 55 14 66 17 14 4 33 -6 61 -34
35 -33 42 -45 42 -80 1 -81 8 -90 257 -327 93 -88 179 -170 191 -183 l24 -22
135 134 135 135 -290 292 c-160 160 -290 294 -290 298 0 4 35 41 77 83 l78 76
67 5 c110 7 151 34 341 225 l168 168 -42 43 -42 43 -157 -157 -158 -157 -31
33 -32 33 156 156 155 155 -42 43 -43 42 -155 -155 -156 -156 -33 32 -33 31
156 157 156 157 -41 43 -42 43 -169 -168 c-191 -191 -217 -231 -225 -341 l-5
-68 -76 -77 c-42 -43 -80 -78 -83 -78 -4 0 -172 164 -373 365 l-365 364 -21
-29z"/>
<path d="M258 555 l-198 -195 145 -145 c79 -80 149 -145 155 -145 11 0 534
520 528 525 -2 2 -28 -2 -58 -9 -121 -28 -184 -6 -300 103 -35 34 -67 61 -70
61 -3 0 -94 -88 -202 -195z"/>
</g>
</svg>
